# xmcd CD database file
#
# Track frame offsets:
#	182
#	15702
#	32407
#	45915
#	73692
#	87452
#	101350
#	114055
#	150000
#	172520
#	188415
#	204617
#	227962
#	271880
#
# Disc length: 4031 seconds
#
# Revision: 0
# Processed by: cddbd v1.4PL0 Copyright (c) Steve Scherf et al.
# Submitted via: CDex 1.40Release
#
DISCID=950fbd0e
DTITLE=Neil Young and The International Harvesters - Live in Austin, Texas '84
DYEAR=1984
DGENRE=Country
TTITLE0=Are you ready for the country?
TTITLE1=Hawks and doves
TTITLE2=Comes a time
TTITLE3=Bound for glory
TTITLE4=Are there any more real cowboys?
TTITLE5=Heart of gold
TTITLE6=Roll another number for the road
TTITLE7=Southern Pacific
TTITLE8=Helpless
TTITLE9=Field of opportunity
TTITLE10=Old man
TTITLE11=Powderfinger
TTITLE12=Down by the river
TTITLE13=Forever young (San Francisco '91 feat. The Grateful Dead)
EXTD=YEAR: 1984 ID3G: 2
EXTT0=
EXTT1=
EXTT2=
EXTT3=
EXTT4=
EXTT5=
EXTT6=
EXTT7=
EXTT8=
EXTT9=
EXTT10=
EXTT11=
EXTT12=
EXTT13=
PLAYORDER=
